<svg width="198" height="207" viewBox="0 0 198 207" fill="none" xmlns="http://www.w3.org/2000/svg">
<rect width="198" height="207" rx="15" fill="white"/>
<path d="M42.7151 154.713L42.7318 154.728L42.7489 154.743C49.5273 160.624 58.0097 163.5 68.007 163.5C77.6684 163.5 86.8242 161.404 95.4449 157.215L95.4668 157.204L95.4884 157.193C102.705 153.511 108.965 148.579 114.258 142.415C114.942 148.093 116.809 152.873 120.013 156.597L120.033 156.62L120.053 156.642C124.252 161.29 130.03 163.5 137.049 163.5C142.096 163.5 147.283 162.297 152.588 159.971C157.949 157.621 162.409 154.386 165.909 150.245L166.746 149.255L166.419 148.001L164.3 139.856L163.345 136.187L160.349 138.509C158.746 139.751 156.625 140.959 153.934 142.108L153.902 142.121L153.871 142.136C151.48 143.235 149.417 143.717 147.648 143.717C145.669 143.717 144.43 143.075 143.562 141.964C142.624 140.762 141.972 138.781 141.972 135.658V64.7616C141.972 48.1994 138.395 35.5692 130.699 27.4542C123.174 19.3057 111.463 15.5 96.169 15.5C85.8317 15.5 76.3569 17.0442 67.7731 20.1705C59.4132 23.0878 52.6777 27.2031 47.6985 32.5951C42.6435 38.0691 40.0704 44.5019 40.0704 51.789C40.0704 55.7306 41.2525 59.1336 43.8341 61.7057C46.4147 64.2766 49.8257 65.4515 53.7746 65.4515C55.8734 65.4515 57.956 65.1022 60.0133 64.419C62.0774 63.7335 63.8677 62.7604 65.2293 61.404L65.9648 60.6712V59.6329C65.9648 49.5462 68.3983 42.3091 72.8664 37.5015L72.8819 37.4849L72.897 37.4681C77.3641 32.4835 83.7842 29.8523 92.5352 29.8523C99.6169 29.8523 104.415 32.1363 107.467 36.3589L107.481 36.3786L107.496 36.3981C110.635 40.5689 112.444 47.6392 112.444 58.1245V76.3368L78.6552 84.0457L78.6463 84.0478C63.6556 87.5258 52.0728 93.0086 44.1614 100.678L44.1491 100.689L44.1369 100.702C36.3412 108.468 32.5 118.486 32.5 130.53C32.5 140.412 35.8744 148.557 42.7151 154.713ZM85.2361 97.3636L112.746 90.8722V127.909C108.95 132.598 104.442 136.353 99.2148 139.194C92.9027 142.624 86.3464 144.321 79.5141 144.321C73.4023 144.321 68.8678 142.5 65.5978 139.084C62.2851 135.423 60.5141 130.449 60.5141 123.892C60.5141 116.987 62.5567 111.485 66.5158 107.182C70.7293 102.621 76.8901 99.2973 85.2263 97.3659L85.2361 97.3636Z" fill="black" stroke="black" stroke-width="5"/>
<path d="M18 172H28.2871C30.422 172 32.55 172.244 34.6294 172.728L53 177L77.5 182.5L86.9421 185.042C89.2588 185.666 91.3303 186.981 92.88 188.813V188.813C97.4591 194.224 105.743 194.403 110.552 189.194L111.115 188.583C112.675 186.894 114.669 185.666 116.88 185.034L125.75 182.5L147 177L164.802 172.761C166.927 172.256 169.103 172 171.287 172H179" stroke="#2B4D81" stroke-width="15" stroke-linecap="round"/>
</svg>
